{"title":"A Nanny for Christmas 2010 DvDRip H264 Feel-Free","uid":5999419,"size":729318667,"categoryP":"video","categoryS":"movies","magnet":"?xt=urn:btih:116be077cacbb4e7f5de00919d8c8bd42d72ffe8&amp;dn=A+Nanny+for+Christmas+2010+DvDRip+H264+Feel-Free&amp;tr=udp%3A%2F%2Ftracker.openbittorrent.com%3A80&amp;tr=udp%3A%2F%2Fopen.demonii.com%3A1337&amp;tr=udp%3A%2F%2Ftracker.coppersurfer.tk%3A6969&amp;tr=udp%3A%2F%2Fexodus.desync.com%3A6969","seeders":0,"leechers":1,"uploader":"neon","files":-1,"time":1291137636,"description":"\n\nGenre:Comedy\nLanguage:English\n &lt;a href=&quot; http://www.imdb.com/title/tt1572008/&quot; rel=&quot;nofollow&quot; target=&quot;_NEW&quot;&gt; http://www.imdb.com/title/tt1572008/&lt;/a&gt;\nSource:DVD\n\nGeneral\nComplete name :A Nanny for Christmas 2010 DvDRip H264 Feel-Free\nFormat : MPEG-4\nFormat profile : Base Media\nCodec ID : isom\nFile size : 693 MiB\nDuration : 1h 27mn\nOverall bit rate : 1 105 Kbps\nVideo #2\nCodec ID : avc1\nCodec ID/Info : Advanced Video Coding\nDuration : 1h 27mn\nBit rate mode : Variable\nBit rate : 939 Kbps\nWidth : 720 pixels\nHeight : 384 pixels\nDisplay aspect ratio : 1.875\nFrame rate mode : Constant\nFrame rate : 29.970 fps\nOriginal frame rate : 29.000 fps\nResolution : 24 bits\nColorimetry : 4:2:0\nScan type : Progressive\nBits/(Pixel*Frame) : 0.113\nStream size : 589 MiB (85%)\nAudio #1\nID : 1\nFormat : AAC\nFormat/Info : Advanced Audio Codec\nFormat version : Version 4\nFormat profile : LC\nFormat settings, SBR : No\nCodec ID : 40\nDuration : 1h 27mn\nBit rate mode : Constant\nBit rate : 160 Kbps\nChannel(s) : 2 channels\nChannel positions : L R\nSampling rate : 48.0 KHz\nResolution : 16 bits\nStream size : 99.8 MiB (14%)\n\nTRAILER: &lt;a href=&quot; http://www.imdb.com/video/screenplay/vi1029806361/&quot; rel=&quot;nofollow&quot; target=&quot;_NEW&quot;&gt; http://www.imdb.com/video/screenplay/vi1029806361/&lt;/a&gt;\n\n","torrent":{"xt":"urn:btih:116be077cacbb4e7f5de00919d8c8bd42d72ffe8","amp;dn":"A+Nanny+for+Christmas+2010+DvDRip+H264+Feel-Free","amp;tr":["udp%3A%2F%2Ftracker.openbittorrent.com%3A80","udp%3A%2F%2Fopen.demonii.com%3A1337","udp%3A%2F%2Ftracker.coppersurfer.tk%3A6969","udp%3A%2F%2Fexodus.desync.com%3A6969"],"infoHash":"116be077cacbb4e7f5de00919d8c8bd42d72ffe8","infoHashBuffer":{"type":"Buffer","data":[17,107,224,119,202,203,180,231,245,222,0,145,157,140,139,212,45,114,255,232]},"announce":[],"urlList":[]}}